<?xml version="1.0" encoding="UTF-8"?>
<svg version="1.1" xmlns="http://www.w3.org/2000/svg" width="239" height="211">
<path d="M0 0 C78.87 0 157.74 0 239 0 C239 69.63 239 139.26 239 211 C160.13 211 81.26 211 0 211 C0 141.37 0 71.74 0 0 Z " fill="#0085FF" transform="translate(0,0)"/>
<path d="M0 0 C64.35 0 128.7 0 195 0 C195 0.33 195 0.66 195 1 C193.87078125 1.27650391 193.87078125 1.27650391 192.71875 1.55859375 C178.32952049 5.48769161 166.64505362 12.58720209 156 23 C154.7146178 24.09078251 153.42312342 25.17441203 152.125 26.25 C141.80763169 35.28029218 133.24352895 46.10539006 125 57 C124.5477002 57.59006836 124.09540039 58.18013672 123.62939453 58.78808594 C113.91483725 71.48563648 105.68321555 84.99281227 98 99 C96.13002139 96.57205732 94.43962969 94.1608578 92.94140625 91.48828125 C82.07558497 72.40216978 69.22738968 54.54260115 54.26171875 38.44921875 C52.29810359 36.32281684 50.42394019 34.15265805 48.5625 31.9375 C35.75319241 17.26392699 19.08119998 5.61641935 0 1 C0 0.67 0 0.34 0 0 Z " fill="#FEFEFF" transform="translate(22,0)"/>
<path d="M0 0 C0.33 0 0.66 0 1 0 C1 59.73 1 119.46 1 181 C-51.8 181 -104.6 181 -159 181 C-156.90547213 179.95273607 -154.80566931 178.91308828 -152.66796875 177.95703125 C-136.16088382 170.34037632 -129.5160317 153.99002684 -123 138 C-122.56300781 136.93136719 -122.12601563 135.86273438 -121.67578125 134.76171875 C-120.76932394 132.51306851 -119.87505599 130.26101424 -119 128 C-115.5162005 129.74189975 -115.07812976 134.09988058 -113.875 137.625 C-108.46990952 152.74731469 -101.08168069 170.76009235 -85.67578125 178.2578125 C-77.1700095 180.61707766 -67.26890021 180.13182422 -59.29296875 176.32421875 C-54.96350466 173.82389792 -50.94387999 171.07167576 -47 168 C-45.8553125 167.12214844 -45.8553125 167.12214844 -44.6875 166.2265625 C-35.28673009 158.49051226 -27.37777517 147.81862766 -25.66015625 135.578125 C-25.17297159 127.92576105 -27.73636958 121.90062816 -32.62109375 116.0625 C-42.27056002 106.76580992 -55.27347268 102.86970714 -68 100 C-68 99.67 -68 99.34 -68 99 C-67.11646851 98.970271 -67.11646851 98.970271 -66.21508789 98.93994141 C-63.49717649 98.84356723 -60.77991897 98.73435288 -58.0625 98.625 C-57.13630859 98.5940625 -56.21011719 98.563125 -55.25585938 98.53125 C-40.23356664 97.89873241 -25.83912362 93.49626123 -15.25 82.3125 C-8.97513449 74.52160523 -6.23102093 65.64951791 -4.875 55.875 C-4.71741211 54.80910645 -4.55982422 53.74321289 -4.39746094 52.64501953 C-2.00247168 35.2051432 -1.11037088 17.558699 0 0 Z " fill="#FCFDFF" transform="translate(238,30)"/>
<path d="M0 0 C0.33 0 0.66 0 1 0 C1.08040527 1.20833496 1.16081055 2.41666992 1.24365234 3.66162109 C1.54908321 8.23562469 1.85976905 12.80925994 2.171875 17.3828125 C2.30509761 19.34528396 2.43698005 21.30784696 2.56738281 23.27050781 C3.22784538 33.19776828 3.93118034 43.11414968 4.9921875 53.0078125 C5.06658051 53.72456146 5.14097351 54.44131042 5.21762085 55.17977905 C6.73777544 68.62029018 12.09269476 80.53524138 22.58203125 89.25 C33.24154661 96.96480272 44.68411899 99.41232938 57.625 99.6875 C58.72457031 99.72166016 59.82414062 99.75582031 60.95703125 99.79101562 C63.63791863 99.87260785 66.31851548 99.942041 69 100 C65.71949193 101.70171966 62.56497995 102.75390266 59 103.75 C47.68571016 107.1912711 35.96664454 112.11855647 29.5625 122.625 C26.23277775 129.81720007 26.05613084 136.73786275 28.4375 144.25 C34.82215651 160.42446315 48.72040204 171.66790293 64 179 C66.32048695 179.77768598 68.62432697 180.39928979 71 181 C71 181.33 71 181.66 71 182 C47.57 182 24.14 182 0 182 C0 121.94 0 61.88 0 0 Z " fill="#FCFDFF" transform="translate(0,29)"/>
<path d="M0 0 C4.62 0 9.24 0 14 0 C14 6.6 14 13.2 14 20 C13.67 20 13.34 20 13 20 C12.89042969 19.33613281 12.78085938 18.67226563 12.66796875 17.98828125 C11.55133985 10.97148516 11.55133985 10.97148516 8 5 C5.41820033 3.4509202 2.76904971 2.17733943 0 1 C0 0.67 0 0.34 0 0 Z " fill="#F4F8FF" transform="translate(225,0)"/>
<path d="M0 0 C4.62 0 9.24 0 14 0 C11 2 11 2 8.5625 3.125 C5.44291491 5.40762323 4.43986686 7.59042679 2.89453125 11.0625 C2 13 2 13 0 16 C0 10.72 0 5.44 0 0 Z " fill="#F7FAFF" transform="translate(0,0)"/>
</svg>
